<svg id="svg" version="1.1" xmlns="http://www.w3.org/2000/svg" xmlns:xlink="http://www.w3.org/1999/xlink" width="400" height="400" viewBox="0, 0, 400,400"><g id="svgg"><path id="path0" d="M225.715 65.151 C 212.248 67.714,201.058 69.988,200.848 70.205 C 200.638 70.422,196.125 84.901,190.819 102.381 C 185.513 119.861,181.085 134.249,180.979 134.354 C 180.873 134.460,179.125 133.771,177.094 132.824 C 161.419 125.514,136.947 123.447,119.760 127.982 C 91.200 135.517,73.544 160.100,82.446 179.939 C 88.565 193.575,105.777 202.786,130.028 205.399 L 132.255 205.639 133.120 208.320 C 137.461 221.772,159.184 241.885,181.588 253.194 L 183.940 254.381 185.601 251.291 C 187.375 247.987,188.071 247.010,187.771 248.242 C 187.215 250.522,167.207 351.740,167.295 351.826 C 167.353 351.882,181.850 321.839,199.511 285.064 C 217.172 248.289,231.777 217.952,231.967 217.648 C 232.198 217.278,234.672 216.780,239.456 216.140 C 270.691 211.959,283.582 206.494,283.596 197.426 C 283.605 191.965,279.680 188.205,271.186 185.538 L 268.200 184.600 270.400 184.472 C 274.012 184.263,282.993 185.162,285.730 186.007 C 289.648 187.218,291.457 189.060,294.406 194.844 C 296.635 199.215,296.927 199.613,297.532 199.100 C 297.899 198.788,300.270 196.819,302.800 194.723 C 318.230 181.941,323.140 170.679,317.939 160.000 C 309.774 143.234,272.332 133.961,231.655 138.630 C 228.715 138.967,226.265 139.189,226.210 139.122 C 226.156 139.055,231.756 121.462,238.655 100.026 C 245.555 78.590,251.200 60.905,251.200 60.726 C 251.200 60.274,252.778 60.000,225.715 65.151 M233.785 76.500 C 233.659 76.995,228.920 91.796,223.254 109.392 C 212.998 141.242,212.948 141.385,211.776 141.682 C 211.129 141.847,207.900 142.639,204.600 143.444 C 201.300 144.248,196.647 145.525,194.260 146.280 C 191.873 147.036,189.834 147.567,189.728 147.461 C 189.622 147.355,194.118 132.178,199.720 113.734 L 209.905 80.200 221.653 77.940 C 228.114 76.697,233.538 75.662,233.708 75.640 C 233.877 75.618,233.912 76.005,233.785 76.500 M147.198 137.900 C 147.197 138.065,144.992 139.314,142.298 140.675 C 116.019 153.956,102.860 172.805,110.042 186.882 C 111.201 189.155,111.011 189.261,108.107 187.958 C 101.639 185.056,95.575 179.882,93.377 175.388 C 86.602 161.542,104.271 142.379,127.600 138.273 C 131.184 137.642,147.202 137.337,147.198 137.900 M179.110 140.900 C 179.013 141.175,178.151 144.024,177.194 147.232 L 175.455 153.064 169.427 156.108 C 151.392 165.216,138.771 176.907,133.740 189.167 C 132.668 191.779,132.545 191.797,129.053 189.845 C 123.036 186.479,119.688 181.934,120.124 177.718 C 121.403 165.326,146.755 147.969,172.600 141.790 C 178.981 140.265,179.351 140.214,179.110 140.900 M270.400 150.173 C 288.294 152.514,302.374 157.901,306.624 164.035 C 309.262 167.842,307.844 173.063,302.653 178.651 L 300.102 181.396 298.326 179.759 C 288.675 170.863,266.146 170.557,229.000 178.817 C 183.874 188.852,161.325 202.347,159.657 220.318 L 159.334 223.800 154.767 219.189 C 140.184 204.466,139.830 194.877,153.372 181.467 C 175.664 159.391,229.930 144.880,270.400 150.173 M231.600 190.670 C 231.600 191.333,197.391 262.076,197.315 261.569 C 197.268 261.256,200.149 246.338,203.718 228.417 L 210.206 195.833 212.003 195.290 C 219.247 193.101,231.600 190.189,231.600 190.670 M252.278 194.431 C 260.487 195.121,269.705 196.872,268.948 197.597 C 267.486 198.998,239.437 205.171,238.553 204.287 C 238.465 204.198,239.470 201.848,240.786 199.063 L 243.179 194.000 245.168 194.000 C 246.261 194.000,249.461 194.194,252.278 194.431 M195.964 207.197 L 194.671 213.671 192.835 213.411 C 189.318 212.911,181.157 211.185,179.914 210.677 L 178.661 210.166 181.830 208.137 C 186.083 205.415,196.691 200.189,197.128 200.602 C 197.199 200.669,196.675 203.636,195.964 207.197 M188.403 224.620 C 192.511 225.327,192.746 225.414,192.152 226.008 C 191.893 226.267,190.736 226.133,188.779 225.618 C 185.659 224.798,181.873 223.451,183.603 223.777 C 184.155 223.881,186.315 224.261,188.403 224.620 M182.725 236.179 C 184.636 236.717,186.965 237.354,187.900 237.594 C 188.891 237.849,189.600 238.266,189.600 238.596 C 189.600 239.756,188.722 243.200,188.427 243.200 C 187.612 243.200,178.161 235.261,178.925 235.218 C 179.103 235.208,180.813 235.640,182.725 236.179 " stroke="none" fill="#fafafa" fill-rule="evenodd"></path><path id="path1" d="M0.000 200.000 L 0.000 400.000 200.000 400.000 L 400.000 400.000 400.000 200.000 L 400.000 0.000 200.000 0.000 L 0.000 0.000 0.000 200.000 M251.600 60.313 C 251.600 60.485,245.954 78.170,239.053 99.613 C 232.152 121.056,226.554 138.657,226.612 138.726 C 226.671 138.795,229.752 138.531,233.459 138.137 C 268.110 134.463,301.751 141.262,314.195 154.453 C 325.190 166.109,321.047 180.276,302.155 195.621 C 296.227 200.436,297.009 200.458,294.498 195.408 C 290.322 187.012,287.410 185.403,275.600 184.966 L 269.800 184.752 272.747 185.790 C 280.540 188.535,283.810 191.973,283.789 197.400 C 283.755 206.497,271.758 211.785,241.235 216.157 L 232.270 217.442 199.652 285.371 C 181.712 322.733,166.978 353.133,166.909 352.927 C 166.840 352.721,171.378 329.448,176.992 301.208 C 182.606 272.968,187.196 249.669,187.191 249.432 C 187.186 249.194,186.517 250.215,185.704 251.700 C 183.888 255.017,184.087 255.019,178.121 251.621 C 154.383 238.102,137.957 222.343,132.819 208.156 L 131.934 205.713 128.581 205.455 C 113.940 204.330,98.584 198.358,89.884 190.407 C 69.000 171.321,82.361 140.149,116.287 128.806 C 133.227 123.142,160.134 124.662,176.251 132.194 C 178.377 133.187,180.316 133.998,180.558 133.995 C 180.801 133.993,185.380 119.548,190.733 101.895 C 196.087 84.243,200.497 69.772,200.533 69.738 C 200.589 69.687,250.386 60.177,251.300 60.044 C 251.465 60.020,251.600 60.141,251.600 60.313 M221.460 78.214 C 215.332 79.388,210.255 80.412,210.176 80.491 C 210.097 80.570,205.610 95.207,200.206 113.017 C 194.801 130.828,190.222 145.868,190.031 146.440 L 189.684 147.479 193.907 146.139 C 198.685 144.623,210.481 141.600,211.621 141.600 C 212.034 141.600,212.537 141.285,212.738 140.900 C 213.094 140.221,233.600 76.635,233.600 76.211 C 233.600 75.894,233.442 75.920,221.460 78.214 M131.044 138.025 C 111.706 140.269,94.789 152.713,92.396 166.453 C 91.014 174.389,96.091 181.712,106.606 186.947 C 110.741 189.006,110.615 189.006,109.750 186.961 C 103.303 171.720,115.033 154.794,141.948 140.498 L 146.436 138.114 144.562 137.857 C 142.127 137.523,134.558 137.617,131.044 138.025 M173.269 141.825 C 152.391 146.674,130.356 159.474,122.945 171.059 C 118.190 178.493,119.927 183.943,128.782 189.372 C 132.569 191.694,132.473 191.712,133.756 188.441 C 138.132 177.287,151.661 164.882,169.000 156.126 C 172.300 154.460,175.045 153.060,175.100 153.015 C 175.207 152.928,178.800 141.217,178.800 140.956 C 178.800 140.650,177.343 140.879,173.269 141.825 M238.400 150.016 C 196.743 153.854,160.173 169.379,147.667 188.537 C 140.884 198.927,142.711 206.683,154.840 218.988 L 159.583 223.800 159.591 220.518 C 159.637 202.939,184.193 188.316,230.600 178.231 C 267.130 170.292,288.283 170.662,298.290 179.416 L 300.324 181.196 302.311 178.898 C 308.760 171.438,309.435 166.944,304.793 162.375 C 295.511 153.239,265.024 147.564,238.400 150.016 M223.800 192.371 C 216.005 194.351,210.400 195.936,210.400 196.161 C 210.400 196.231,207.527 210.750,204.015 228.425 C 200.503 246.101,197.676 260.610,197.734 260.667 C 197.791 260.724,205.105 245.613,213.987 227.086 C 222.870 208.558,230.470 192.725,230.877 191.900 C 231.283 191.075,231.568 190.409,231.508 190.421 C 231.449 190.432,227.980 191.310,223.800 192.371 M243.337 194.396 C 242.851 194.882,238.814 203.748,238.996 203.930 C 239.640 204.573,258.903 200.727,265.200 198.699 L 269.000 197.474 266.204 196.757 C 261.141 195.458,244.041 193.693,243.337 194.396 M192.800 202.569 C 187.688 204.840,185.963 205.749,182.222 208.144 L 179.044 210.177 180.822 210.700 C 183.983 211.628,192.480 213.246,193.539 213.121 C 194.525 213.005,194.612 212.775,195.690 207.400 C 197.123 200.259,197.306 200.566,192.800 202.569 M189.000 225.415 C 191.316 226.075,192.334 226.161,191.780 225.650 C 191.571 225.457,190.410 225.197,189.200 225.072 L 187.000 224.845 189.000 225.415 M181.400 237.415 C 183.574 239.451,187.912 242.800,188.377 242.800 C 188.607 242.800,189.664 238.266,189.456 238.176 C 189.425 238.163,187.510 237.682,185.200 237.107 C 182.890 236.532,180.640 235.944,180.200 235.801 C 179.747 235.653,180.267 236.353,181.400 237.415 " stroke="none" fill="#131329" fill-rule="evenodd"></path><path id="path2" d="M248.105 137.487 C 248.714 137.579,249.614 137.577,250.105 137.482 C 250.597 137.387,250.100 137.311,249.000 137.314 C 247.900 137.317,247.497 137.395,248.105 137.487 M257.900 137.482 C 258.395 137.578,259.205 137.578,259.700 137.482 C 260.195 137.387,259.790 137.309,258.800 137.309 C 257.810 137.309,257.405 137.387,257.900 137.482 M245.300 149.476 C 245.685 149.576,246.315 149.576,246.700 149.476 C 247.085 149.375,246.770 149.293,246.000 149.293 C 245.230 149.293,244.915 149.375,245.300 149.476 M313.400 154.000 C 314.259 154.880,315.052 155.600,315.162 155.600 C 315.272 155.600,314.659 154.880,313.800 154.000 C 312.941 153.120,312.148 152.400,312.038 152.400 C 311.928 152.400,312.541 153.120,313.400 154.000 M152.975 181.700 L 151.800 183.000 153.100 181.825 C 154.312 180.730,154.584 180.400,154.275 180.400 C 154.206 180.400,153.621 180.985,152.975 181.700 M268.523 184.657 C 268.804 184.937,275.269 184.864,275.556 184.577 C 275.654 184.480,274.053 184.400,272.000 184.400 C 269.947 184.400,268.382 184.515,268.523 184.657 M308.981 189.300 L 307.400 191.000 309.100 189.419 C 310.681 187.948,310.984 187.600,310.681 187.600 C 310.616 187.600,309.851 188.365,308.981 189.300 M180.000 236.600 C 180.746 237.370,181.447 238.000,181.557 238.000 C 181.667 238.000,181.146 237.370,180.400 236.600 C 179.654 235.830,178.953 235.200,178.843 235.200 C 178.733 235.200,179.254 235.830,180.000 236.600 " stroke="none" fill="#8c8c94" fill-rule="evenodd"></path><path id="path3" d="M248.900 149.476 C 249.285 149.576,249.915 149.576,250.300 149.476 C 250.685 149.375,250.370 149.293,249.600 149.293 C 248.830 149.293,248.515 149.375,248.900 149.476 M100.175 152.100 L 99.000 153.400 100.300 152.225 C 101.015 151.579,101.600 150.994,101.600 150.925 C 101.600 150.616,101.270 150.888,100.175 152.100 M127.375 165.300 L 126.200 166.600 127.500 165.425 C 128.712 164.330,128.984 164.000,128.675 164.000 C 128.606 164.000,128.021 164.585,127.375 165.300 " stroke="none" fill="#66666e" fill-rule="evenodd"></path><path id="path4" d="M270.300 172.689 C 271.015 172.778,272.185 172.778,272.900 172.689 C 273.615 172.601,273.030 172.528,271.600 172.528 C 270.170 172.528,269.585 172.601,270.300 172.689 " stroke="none" fill="#848484" fill-rule="evenodd"></path><path id="path5" d="" stroke="none" fill="#7c7c8c" fill-rule="evenodd"></path><path id="path6" d="M252.300 149.493 C 253.235 149.577,254.765 149.577,255.700 149.493 C 256.635 149.409,255.870 149.340,254.000 149.340 C 252.130 149.340,251.365 149.409,252.300 149.493 " stroke="none" fill="#444444" fill-rule="evenodd"></path><path id="path7" d="" stroke="none" fill="#4c4c64" fill-rule="evenodd"></path><path id="path8" d="M136.711 125.493 C 137.651 125.578,139.091 125.577,139.911 125.491 C 140.730 125.405,139.960 125.336,138.200 125.337 C 136.440 125.339,135.770 125.409,136.711 125.493 M91.600 143.400 C 90.628 144.390,89.923 145.200,90.033 145.200 C 90.143 145.200,91.028 144.390,92.000 143.400 C 92.972 142.410,93.677 141.600,93.567 141.600 C 93.457 141.600,92.572 142.410,91.600 143.400 M143.600 225.310 C 143.600 225.371,144.995 226.766,146.700 228.410 L 149.800 231.400 146.810 228.300 C 144.033 225.421,143.600 225.017,143.600 225.310 " stroke="none" fill="#35354d" fill-rule="evenodd"></path></g></svg>