<svg width="175" height="50" viewBox="0 0 175 50" fill="none" xmlns="http://www.w3.org/2000/svg">
<path d="M13.2239 26.6667C9.61193 26.6667 6 25 6 22.3333C6 19.6667 9.28357 17 13.2239 17C16.3761 17 17.8209 17.6667 17.8209 17.6667C14.8656 18.3333 9.94029 21 9.94029 23.6667C9.94029 25.8 13.2239 26.6667 13.2239 26.6667ZM13.2239 26.6667C13.2239 29.3333 17.7114 32.4444 20.1194 33.6667C20.1194 33.6667 17.1641 31.8928 17.1641 29.6667M13.2239 26.6667C13.2239 24.7329 15.3267 22.3504 19.2274 20.6906M17.1641 29.6667C17.1641 29.2227 17.3179 28.8034 17.5943 28.4087M17.1641 29.6667C17.602 30.1111 19.0926 31.0782 21.5528 31.391M24.4498 19.1396C26.0726 18.8384 27.8149 18.6667 29.6417 18.6667C34.3775 18.6667 41.6273 20.6663 35.8805 25.3333C35.2238 24 34.2387 23.6667 31.9402 23.6667C31.2763 23.6667 29.7632 23.8335 27.9469 24.1672M24.4498 19.1396C22.5209 19.4975 20.7606 20.0383 19.2274 20.6906M24.4498 19.1396L27.9999 8L22.7462 9L19.2274 20.6906M22.7196 25.4685C24.4432 24.9004 26.3171 24.4666 27.9469 24.1672M22.7196 25.4685C20.4516 26.216 18.4437 27.196 17.5943 28.4087M22.7196 25.4685L21.9123 29.5661M27.9469 24.1672L27.5507 25M25.9648 28.3333L19.4626 42L21.5528 31.391M25.9648 28.3333C28.285 28.1111 32.9253 27.4 32.9253 26.3333C32.9253 25.2667 29.3422 25 27.5507 25M25.9648 28.3333L27.5507 25M17.5943 28.4087C17.7706 28.6499 18.881 29.219 21.9123 29.5661M21.9123 29.5661L21.5528 31.391" stroke="white" stroke-miterlimit="11.4737"/>
<path d="M58.776 38L52.152 15.664H55L58.168 26.832L60.568 35.28H60.728L63.128 26.832L66.296 15.664H69.048L62.424 38H58.776ZM79.7875 38.384C78.4222 38.384 77.2488 38.128 76.2675 37.616C75.2862 37.0827 74.4755 36.3253 73.8355 35.344C73.1955 34.3627 72.7262 33.1573 72.4275 31.728C72.1288 30.2987 71.9795 28.6667 71.9795 26.832C71.9795 25.0187 72.1288 23.3973 72.4275 21.968C72.7262 20.5173 73.1955 19.3013 73.8355 18.32C74.4755 17.3387 75.2862 16.592 76.2675 16.08C77.2488 15.5467 78.4222 15.28 79.7875 15.28C81.1528 15.28 82.3262 15.5467 83.3075 16.08C84.2888 16.592 85.0995 17.3387 85.7395 18.32C86.3795 19.3013 86.8488 20.5173 87.1475 21.968C87.4462 23.3973 87.5955 25.0187 87.5955 26.832C87.5955 28.6667 87.4462 30.2987 87.1475 31.728C86.8488 33.1573 86.3795 34.3627 85.7395 35.344C85.0995 36.3253 84.2888 37.0827 83.3075 37.616C82.3262 38.128 81.1528 38.384 79.7875 38.384ZM79.7875 36.048C80.6835 36.048 81.4408 35.8773 82.0595 35.536C82.6782 35.1733 83.1902 34.672 83.5955 34.032C84.0008 33.392 84.2888 32.624 84.4595 31.728C84.6515 30.8107 84.7475 29.7867 84.7475 28.656V25.008C84.7475 23.8987 84.6515 22.8853 84.4595 21.968C84.2888 21.0507 84.0008 20.272 83.5955 19.632C83.1902 18.992 82.6782 18.5013 82.0595 18.16C81.4408 17.7973 80.6835 17.616 79.7875 17.616C78.8915 17.616 78.1342 17.7973 77.5155 18.16C76.8968 18.5013 76.3848 18.992 75.9795 19.632C75.5742 20.272 75.2755 21.0507 75.0835 21.968C74.9128 22.8853 74.8275 23.8987 74.8275 25.008V28.656C74.8275 29.7867 74.9128 30.8107 75.0835 31.728C75.2755 32.624 75.5742 33.392 75.9795 34.032C76.3848 34.672 76.8968 35.1733 77.5155 35.536C78.1342 35.8773 78.8915 36.048 79.7875 36.048ZM94.943 38H92.255V15.664H100.383C102.452 15.664 104.031 16.2293 105.119 17.36C106.207 18.4907 106.751 20.0693 106.751 22.096C106.751 23.9093 106.282 25.36 105.343 26.448C104.404 27.536 103.039 28.1653 101.247 28.336L106.943 38H103.935L98.495 28.464H94.943V38ZM100.319 26.192C101.45 26.192 102.324 25.9147 102.943 25.36C103.583 24.784 103.903 23.9733 103.903 22.928V21.264C103.903 20.2187 103.583 19.4187 102.943 18.864C102.324 18.288 101.45 18 100.319 18H94.943V26.192H100.319ZM119.507 18V38H116.819V18H109.363V15.664H126.963V18H119.507ZM130.63 38V15.664H144.39V18H133.318V25.52H144.006V27.856H133.318V35.664H144.39V38H130.63ZM165.338 38H162.298L159.642 33.552L156.698 28.688H156.57L153.53 33.552L150.714 38H147.77L155.066 26.608L148.186 15.664H151.226L153.818 19.984L156.602 24.496H156.73L159.482 19.984L162.17 15.664H165.114L158.202 26.576L165.338 38Z" fill="white"/>
</svg>
